<svg xmlns="http://www.w3.org/2000/svg" viewBox="0 0 512 512" width="512" height="512">
  <defs>
    <radialGradient id="glow" cx="50%" cy="50%" r="50%">
      <stop offset="0%" stop-color="#d4af37" stop-opacity="0.15" />
      <stop offset="100%" stop-color="#040815" stop-opacity="0" />
    </radialGradient>
  </defs>
  <!-- Background -->
  <rect width="512" height="512" rx="128" fill="#040815" />
  <rect x="8" y="8" width="496" height="496" rx="120" fill="none" stroke="#d4af37" stroke-width="6" stroke-opacity="0.3" />
  
  <!-- Subtle background glow -->
  <circle cx="256" cy="256" r="220" fill="url(#glow)" />
  
  <!-- Outer Decorative Ring -->
  <circle cx="256" cy="256" r="180" fill="none" stroke="#d4af37" stroke-width="2" stroke-opacity="0.25" stroke-dasharray="8,6" />

  <!-- Elegant Starburst Emblem -->
  <g transform="translate(256, 256) scale(8)">
    <path d="M 0 -22 L 3.5 -7 L 18 -18 L 7 -3.5 L 22 0 L 7 3.5 L 18 18 L 3.5 7 L 0 22 L -3.5 7 L -18 18 L -7 3.5 L -22 0 L -7 -3.5 L -18 -18 L -3.5 -7 Z" fill="#d4af37" />
    <circle cx="0" cy="0" r="3.5" fill="#040815" />
    <circle cx="0" cy="0" r="1.5" fill="#d4af37" />
  </g>
</svg>
